<svg id="svg" version="1.1" xmlns="http://www.w3.org/2000/svg" xmlns:xlink="http://www.w3.org/1999/xlink" width="400" height="400" viewBox="0, 0, 400,400"><g id="svgg"><path id="path0" d="M11.429 196.532 C 11.546 370.229,11.419 359.157,13.320 361.552 C 13.513 361.795,13.451 362.175,13.174 362.454 C 12.795 362.836,12.838 362.883,13.379 362.677 C 13.775 362.526,14.063 362.598,14.063 362.849 C 14.063 363.087,14.492 363.281,15.016 363.281 C 15.540 363.281,16.095 363.485,16.249 363.734 C 16.536 364.197,293.084 363.864,354.522 363.326 L 381.895 363.086 383.464 362.047 C 386.489 360.044,387.392 355.688,385.487 352.284 C 384.965 351.350,380.867 345.664,376.382 339.648 C 371.897 333.633,361.018 318.955,352.208 307.031 C 343.397 295.107,332.616 280.518,328.250 274.609 C 318.124 260.908,287.539 219.663,278.184 207.092 L 271.016 197.461 277.284 196.982 C 334.208 192.629,375.520 158.019,375.560 114.648 C 375.597 74.617,339.531 44.411,284.180 38.118 C 272.790 36.823,265.950 36.746,139.156 36.488 L 11.321 36.229 11.429 196.532 M271.875 50.015 C 328.164 53.965,362.708 78.801,362.590 115.234 C 362.467 153.226,322.257 182.648,268.164 184.327 C 256.718 184.682,255.036 185.389,253.934 190.308 C 252.862 195.088,251.222 192.561,284.175 236.914 C 292.795 248.516,302.575 261.699,305.908 266.211 C 309.241 270.723,318.472 283.203,326.422 293.945 C 334.372 304.688,346.382 320.947,353.111 330.078 C 359.840 339.209,365.775 347.260,366.301 347.968 C 366.826 348.677,367.167 349.489,367.059 349.772 C 366.896 350.197,344.976 350.331,242.708 350.535 C 174.424 350.671,97.417 350.893,71.582 351.028 L 24.609 351.274 24.609 200.442 L 24.609 49.609 145.410 49.613 C 223.330 49.616,268.222 49.758,271.875 50.015 " stroke="none" fill="#050505" fill-rule="evenodd"></path><path id="path1" d="M0.000 200.000 L 0.000 400.000 200.000 400.000 L 400.000 400.000 400.000 200.000 L 400.000 0.000 200.000 0.000 L 0.000 0.000 0.000 200.000 M279.297 37.220 C 310.516 40.643,329.625 47.352,347.832 61.284 C 392.652 95.581,382.549 156.413,327.464 183.915 C 311.794 191.738,295.382 196.004,275.293 197.476 C 273.413 197.614,271.875 197.814,271.875 197.921 C 271.875 198.028,277.644 205.878,284.695 215.366 C 300.294 236.357,320.191 263.236,345.321 297.266 C 355.713 311.338,368.294 328.320,373.278 335.005 C 386.696 353.000,386.455 352.628,386.647 355.650 C 386.851 358.856,385.631 361.240,383.089 362.598 L 381.445 363.477 339.063 363.718 C 243.752 364.260,17.137 364.558,16.282 364.142 C 15.813 363.915,14.771 363.620,13.965 363.487 C 12.580 363.259,12.500 363.167,12.496 361.799 C 12.493 361.003,12.239 359.518,11.929 358.499 C 11.469 356.981,10.823 39.181,11.275 36.613 C 11.398 35.915,272.797 36.507,279.297 37.220 M25.000 200.190 L 25.000 350.859 113.770 350.621 C 349.755 349.988,366.797 349.910,366.793 349.463 C 366.788 349.022,364.209 345.491,339.124 311.584 C 304.073 264.206,290.915 246.436,277.906 228.906 C 252.433 194.580,253.516 196.210,253.516 192.184 C 253.516 185.639,255.502 184.611,269.336 183.995 C 323.438 181.587,362.202 152.822,362.262 115.039 C 362.316 80.856,330.324 55.991,279.883 51.010 C 269.883 50.022,269.586 50.020,145.801 49.767 L 25.000 49.520 25.000 200.190 " stroke="none" fill="#fbfbfb" fill-rule="evenodd"></path><path id="path2" d="M263.188 36.604 C 263.674 36.698,264.377 36.694,264.751 36.597 C 265.124 36.499,264.727 36.422,263.867 36.427 C 263.008 36.431,262.702 36.511,263.188 36.604 M263.770 49.879 C 264.146 49.977,264.761 49.977,265.137 49.879 C 265.513 49.780,265.205 49.700,264.453 49.700 C 263.701 49.700,263.394 49.780,263.770 49.879 M24.800 291.406 C 24.800 324.170,24.846 337.573,24.902 321.191 C 24.959 304.810,24.959 278.003,24.902 261.621 C 24.846 245.239,24.800 258.643,24.800 291.406 M327.270 350.292 C 330.344 350.358,335.266 350.358,338.207 350.292 C 341.148 350.226,338.633 350.172,332.617 350.172 C 326.602 350.172,324.195 350.226,327.270 350.292 M157.546 350.683 C 162.018 350.746,169.225 350.746,173.561 350.683 C 177.898 350.620,174.238 350.569,165.430 350.569 C 156.621 350.569,153.073 350.621,157.546 350.683 M374.525 363.570 C 375.660 363.649,377.418 363.648,378.431 363.568 C 379.444 363.488,378.516 363.423,376.367 363.424 C 374.219 363.425,373.390 363.491,374.525 363.570 M258.691 363.964 C 262.505 364.028,268.745 364.028,272.559 363.964 C 276.372 363.900,273.252 363.848,265.625 363.848 C 257.998 363.848,254.878 363.900,258.691 363.964 M71.023 364.355 C 76.463 364.417,85.252 364.416,90.555 364.355 C 95.857 364.294,91.406 364.244,80.664 364.244 C 69.922 364.244,65.584 364.294,71.023 364.355 " stroke="none" fill="#979696" fill-rule="evenodd"></path><path id="path3" d="M265.923 36.604 C 266.408 36.698,267.112 36.694,267.485 36.597 C 267.858 36.499,267.461 36.422,266.602 36.427 C 265.742 36.431,265.437 36.511,265.923 36.604 M11.076 40.039 C 11.075 41.973,11.141 42.813,11.223 41.906 C 11.305 41.000,11.306 39.418,11.225 38.391 C 11.144 37.364,11.077 38.105,11.076 40.039 M11.078 47.266 C 11.078 49.307,11.144 50.142,11.225 49.121 C 11.305 48.101,11.305 46.431,11.225 45.410 C 11.144 44.390,11.078 45.225,11.078 47.266 M24.801 140.820 C 24.801 191.094,24.847 211.602,24.902 186.394 C 24.958 161.187,24.958 120.054,24.902 94.988 C 24.847 69.922,24.801 90.547,24.801 140.820 M171.777 49.902 C 188.589 49.959,216.099 49.959,232.910 49.902 C 249.722 49.846,235.967 49.800,202.344 49.800 C 168.721 49.800,154.966 49.846,171.777 49.902 M355.664 68.359 C 356.722 69.434,357.676 70.313,357.783 70.313 C 357.891 70.313,357.113 69.434,356.055 68.359 C 354.997 67.285,354.043 66.406,353.936 66.406 C 353.828 66.406,354.606 67.285,355.664 68.359 M11.118 120.117 C 11.118 130.000,11.168 133.987,11.230 128.977 C 11.292 123.967,11.292 115.881,11.230 111.008 C 11.168 106.135,11.117 110.234,11.118 120.117 M375.920 114.648 C 375.919 116.582,375.985 117.422,376.067 116.516 C 376.149 115.609,376.150 114.027,376.069 113.000 C 375.988 111.973,375.921 112.715,375.920 114.648 M11.091 168.359 C 11.091 171.260,11.152 172.446,11.227 170.996 C 11.302 169.546,11.302 167.173,11.227 165.723 C 11.152 164.272,11.091 165.459,11.091 168.359 M11.071 179.102 C 11.073 180.820,11.142 181.475,11.224 180.556 C 11.307 179.637,11.305 178.231,11.221 177.431 C 11.138 176.631,11.070 177.383,11.071 179.102 M267.480 184.260 C 267.964 184.353,268.755 184.353,269.238 184.260 C 269.722 184.167,269.326 184.091,268.359 184.091 C 267.393 184.091,266.997 184.167,267.480 184.260 M294.070 350.293 C 299.295 350.354,307.732 350.354,312.820 350.293 C 317.908 350.231,313.633 350.181,303.320 350.181 C 293.008 350.181,288.845 350.231,294.070 350.293 M116.504 350.683 C 122.466 350.744,132.222 350.744,138.184 350.683 C 144.146 350.623,139.268 350.573,127.344 350.573 C 115.420 350.573,110.542 350.623,116.504 350.683 M287.820 363.965 C 292.614 364.027,300.349 364.027,305.007 363.964 C 309.665 363.902,305.742 363.851,296.289 363.851 C 286.836 363.851,283.025 363.902,287.820 363.965 M115.332 364.355 C 123.872 364.414,137.847 364.414,146.387 364.355 C 154.927 364.297,147.939 364.249,130.859 364.249 C 113.779 364.249,106.792 364.297,115.332 364.355 " stroke="none" fill="#cacac9" fill-rule="evenodd"></path><path id="path4" d="M172.003 36.621 C 188.724 36.677,215.970 36.677,232.550 36.621 C 249.130 36.565,235.449 36.519,202.148 36.519 C 168.848 36.519,155.282 36.565,172.003 36.621 M270.410 36.988 C 270.786 37.086,271.401 37.086,271.777 36.988 C 272.153 36.890,271.846 36.809,271.094 36.809 C 270.342 36.809,270.034 36.890,270.410 36.988 M266.313 49.886 C 266.799 49.979,267.502 49.976,267.876 49.878 C 268.249 49.780,267.852 49.704,266.992 49.708 C 266.133 49.712,265.827 49.792,266.313 49.886 M343.750 75.122 C 343.750 75.189,344.321 75.761,345.020 76.392 L 346.289 77.539 345.142 76.270 C 344.072 75.086,343.750 74.820,343.750 75.122 M362.612 115.039 C 362.615 116.113,362.691 116.506,362.780 115.913 C 362.870 115.319,362.868 114.440,362.775 113.959 C 362.682 113.479,362.609 113.965,362.612 115.039 M344.325 155.566 L 341.602 158.398 344.434 155.675 C 345.991 154.176,347.266 152.902,347.266 152.843 C 347.266 152.556,346.855 152.936,344.325 155.566 M353.308 165.332 L 350.977 167.773 353.418 165.442 C 354.761 164.160,355.859 163.061,355.859 163.001 C 355.859 162.712,355.474 163.064,353.308 165.332 M271.973 184.254 C 272.349 184.352,272.964 184.352,273.340 184.254 C 273.716 184.155,273.408 184.075,272.656 184.075 C 271.904 184.075,271.597 184.155,271.973 184.254 M349.121 350.292 C 352.397 350.358,357.759 350.358,361.035 350.292 C 364.312 350.227,361.631 350.173,355.078 350.173 C 348.525 350.173,345.845 350.227,349.121 350.292 M195.605 350.683 C 203.608 350.742,216.704 350.742,224.707 350.683 C 232.710 350.624,226.162 350.576,210.156 350.576 C 194.150 350.576,187.603 350.624,195.605 350.683 M36.621 351.074 C 43.335 351.134,54.321 351.134,61.035 351.074 C 67.749 351.014,62.256 350.965,48.828 350.965 C 35.400 350.965,29.907 351.014,36.621 351.074 M13.032 361.631 C 13.176 361.865,13.115 362.166,12.897 362.301 C 12.227 362.715,12.456 363.236,13.281 363.174 C 14.074 363.114,14.409 362.500,13.649 362.500 C 13.421 362.500,13.336 362.336,13.460 362.136 C 13.583 361.936,13.479 361.646,13.227 361.490 C 12.952 361.320,12.874 361.376,13.032 361.631 M344.656 363.574 C 349.773 363.636,358.035 363.636,363.015 363.574 C 367.996 363.512,363.809 363.462,353.711 363.462 C 343.613 363.462,339.538 363.512,344.656 363.574 M214.355 363.965 C 221.284 364.024,232.622 364.024,239.551 363.965 C 246.479 363.905,240.811 363.856,226.953 363.856 C 213.096 363.856,207.427 363.905,214.355 363.965 M28.000 364.355 C 34.054 364.416,44.073 364.416,50.265 364.355 C 56.457 364.295,51.504 364.245,39.258 364.245 C 27.012 364.245,21.945 364.295,28.000 364.355 " stroke="none" fill="#747c7c" fill-rule="evenodd"></path></g></svg>